# xmcd
#
# Track frame offsets:
#	150
#	16535
#	31969
#	47917
#	64271
#	79996
#	94946
#	110860
#	127265
#	143632
#	160716
#	176340
#	189695
#	203892
#	220218
#	235488
#	251368
#	266903
#	282983
#	298330
#
# Disc length: 4181 seconds
#
# Revision: 0
# Processed by: cddbd v1.5.2PL0 Copyright (c) Steve Scherf et al.
# Submitted via: EasyCDDAExtractor 16.0.6.1
#
DISCID=37105314
DTITLE=Συλλογικός δίσκος - Τα ρεμπέτικα Γ 1937-1960 20 Α
DYEAR=2010
DGENRE=Ρεμπέτικη
TTITLE0=Μπέλλου Σωτηρία-Τσιτσάνης Βασίλης - Φτωχέ διαβάτη [ζεϊμπ., Β. Τσιτσάνη
TTITLE0=ς, Αθήνα 1952]
TTITLE1=Χατζηχρήστος Απόστολος-Μπίνης Τάκης - Καρδιά ορφανή [ζεϊμπ., Α. Χατζηχ
TTITLE1=ρήστος-Κ. Μάνεσης, Αθ 1952]
TTITLE2=Μπίνης Τάκης-Χασκίλ Στέλλα - Το κουρασμένο βήμα σου [ζεϊμπ.Μ.Μπακάλης-
TTITLE2=Κ.Βίρβος, Αθ1953]
TTITLE3=Γιαννάς Χρήστος - Το πλουσιόπαιδο [ζεϊμπ.Μ.Χιώτης-Χ.Κολοκοτρώνης, Αθ 1
TTITLE3=0.1952]
TTITLE4=Μπίνης Τάκης-Μπέλλου Σ.-Τσιτσάνης Β.-Τατασσόπουλος Γ. - Τα καβουράκια 
TTITLE4=[ζεϊμπ., Β. Τσιτσάνης, Αθ 5.1952]
TTITLE5=Μητσάκης Γιώργος-Τατασσόπουλος Γιάννης - Απόψε είναι βαριά [ζεϊμπ., Γ.
TTITLE5=Μητσάκης, Αθήνα 1952]
TTITLE6=Στάμου Ρένα-Τζουανάκος Σ.-Γιαννόπουλος Αθ.-Βούλγαρης Ν. - Ο μαχαραγιάς
TTITLE6=[τσιφτ., Σ.Τζουανάκος-Ν.Γκούμας, Αθ22.1.1952]
TTITLE7=Χασκίλ Στέλλα-Τσιτσάνης Β.-Γιαννόπουλος Αθ. - Της φτώχειας τα κουρέλια
TTITLE7=[ζεϊμπ., Β. Τσιτσάνης, Αθ 1952]
TTITLE8=Ευγενικός Αθανάσιος - Το φτωχομπούζουκο [ζεϊμπ., Μ. Χιώτης, Αθήνα 1953
TTITLE8=]
TTITLE9=Γκρέϋ Καίτη-Ρουμελιώτης Δημήτρης - Το βουνό [ζεϊμπ., Λ. Νταράλας-Ευ. Π
TTITLE9=ρέκας, Αθ 12.1953]
TTITLE10=Μπέλλου Σωτηρία-Μπίνης Τ.-Τσιτσάνης Β. - Απόψε κάνεις μπαμ [ζεϊμπ., Β
TTITLE10=Τσιτσάνης, Αθήνα 1953]
TTITLE11=Ρουμελιώτης Δημήτρης-Τζόϋ Γεωργία - Όπου Γιώργος και μάλαμα [ζεϊμπ., 
TTITLE11=Γ. Μητσάκης, Αθ 8.1956]
TTITLE12=Σπαγγαδώρος Ανδρέας-Τατασσόπουλος Γιάννης - Γυναίκα με δυό άντρες [ζε
TTITLE12=ϊμπ., Γ. Μητσάκης, Αθήνα 1952]
TTITLE13=Πολυμέρης Φώτης-Λαμπίρη Ε.-Στεφανίδης Τότης - Το σκαλοπάτι σου [χασ. 
TTITLE13=Β.Τσιτσάνης-Γερ.Τσάκαλος, Αθ 1.1953]
TTITLE14=Χατζηχρήστος Απ.-Καλφοπούλου Σ.-Τατασσόπουλος Γ. - Καροτσέρη τράβα [χ
TTITLE14=ασ., Α. Χατζηχρήστος, Αθήνα 1952]
TTITLE15=Παγιουμτζής Στράτος-Τσιτσάνης Β.-Γιαννόπουλος Αθ. - Τα βλέπω σκοτεινά
TTITLE15=(Γλυκοχαρ. τα βουνά)[Β.Τσιτσάνης,Αθ1952]
TTITLE16=Καζαντζίδης Στέλιος-Μαρινέλλα - Νίτσα, Ελενίτσα [καλαμ., Γ. Μητσάκης,
TTITLE16=Αθήνα 12.11.1957]
TTITLE17=Τζουανάκος Σταύρος - Παλιό μεράκι [ζεϊμπ. Σ. Τζουανάκος-Ν. Γκούμας, Α
TTITLE17=θ 8.1953]
TTITLE18=Χρυσάφη Άννα-Γαβαλάς Πάνος - Η πρώτη αγάπη [ζεϊμπ., Γ. Μητσάκης, Αθήν
TTITLE18=α 30.4.1958]
TTITLE19=Καναρίδης Μανώλης - Όταν θα λάβεις αυτό το γράμμα[ζεϊμπ.Γ.Μητσάκης-Γ.
TTITLE19=Ζαμπέτας,Αθ6.1956]
EXTD=
EXTT0=
EXTT1=
EXTT2=
EXTT3=
EXTT4=
EXTT5=
EXTT6=
EXTT7=
EXTT8=
EXTT9=
EXTT10=
EXTT11=
EXTT12=
EXTT13=
EXTT14=
EXTT15=
EXTT16=
EXTT17=
EXTT18=
EXTT19=
PLAYORDER=
